# xmcd CD database file
#
# Track frame offsets:
#	150
#	2807
#	20662
#	31265
#	45407
#	58915
#	69025
#	83367
#	86137
#	106042
#	129667
#	131297
#	141332
#	164327
#
# Disc length: 2564 seconds
#
# Revision: 0
# Processed by: cddbd v1.5PL3 Copyright (c) Steve Scherf et al.
# Submitted via: CDex 1.51
#
DISCID=ab0a020e
DTITLE=Sonic Dragolgo - My Sweet Honey Bunny
DYEAR=1999
DGENRE=Hardcore
TTITLE0=Groove
TTITLE1=Mexico
TTITLE2=Synth De Date
TTITLE3=Sweet Machinegun
TTITLE4=Punk
TTITLE5=A-Ninja
TTITLE6=Miffy
TTITLE7=Technique
TTITLE8=Ponk
TTITLE9=Banbi
TTITLE10=Eriot Terrorist
TTITLE11=Gabba Champ of Elec
TTITLE12=My Sweet Honey Bunny
TTITLE13=Pun Pun Village
EXTD=YEAR: 1999/08/07
EXTT0=
EXTT1=
EXTT2=
EXTT3=
EXTT4=
EXTT5=
EXTT6=
EXTT7=
EXTT8=
EXTT9=
EXTT10=
EXTT11=
EXTT12=
EXTT13=
PLAYORDER=
